FFmpeg version SVN-r25716, Copyright (c) 2000-2010 the FFmpeg developers  built on Nov 10 2010 12:23:18 with gcc 4.1.2 20080704 (Red Hat 4.1.2-48)  configuration: --enable-libmp3lame --enable-shared --disable-mmx --arch=x86_64  libavutil     50.33. 0 / 50.33. 0  libavcore      0.12. 1 /  0.12. 1  libavcodec    52.94. 4 / 52.94. 4  libavformat   52.84. 0 / 52.84. 0  libavdevice   52. 2. 2 / 52. 2. 2  libavfilter    1.59. 0 /  1.59. 0  libswscale     0.12. 0 /  0.12. 0Seems stream 0 codec frame rate differs from container frame rate: 1200.00 (1200/1) -> 30.00 (30/1)Input #0, mov,mp4,m4a,3gp,3g2,mj2, from '/RAID10/data/converted_video_files/13398.mov':  Metadata:    major_brand     : qt      minor_version   : 537199360    compatible_brands: qt    Duration: 00:00:08.00, start: 0.000000, bitrate: 20398 kb/s    Stream #0.0(eng): Video: h264, yuv420p, 768x768, 20388 kb/s, 30 fps, 30 tbr, 600 tbn, 1200 tbc[buffer @ 0x1cbf9410] w:768 h:768 pixfmt:yuv420pOutput #0, flv, to '/RAID10/data/converted_video_files/13398.flv':  Metadata:    encoder         : Lavf52.84.0    Stream #0.0(eng): Video: flv, yuv420p, 768x768, q=2-31, 600 kb/s, 1k tbn, 24 tbcStream mapping:  Stream #0.0 -> #0.0Press [q] to stop encodingframe=   12 fps=  0 q=24.3 size=     651kB time=0.50 bitrate=10660.2kbits/s dup=0 drop=3    frame=   15 fps= 14 q=30.3 size=     671kB time=0.62 bitrate=8789.3kbits/s dup=0 drop=3    frame=   31 fps= 20 q=31.0 size=     705kB time=1.29 bitrate=4467.0kbits/s dup=0 drop=7    frame=   47 fps= 23 q=31.0 size=     739kB time=1.96 bitrate=3093.9kbits/s dup=0 drop=11    frame=   63 fps= 24 q=31.0 size=     788kB time=2.62 bitrate=2459.8kbits/s dup=0 drop=15    frame=   79 fps= 26 q=31.0 size=     818kB time=3.29 bitrate=2036.1kbits/s dup=0 drop=19    frame=   95 fps= 26 q=31.0 size=     848kB time=3.96 bitrate=1755.6kbits/s dup=0 drop=23    frame=  111 fps= 27 q=31.0 size=     894kB time=4.62 bitrate=1583.8kbits/s dup=0 drop=27    frame=  127 fps= 27 q=31.0 size=     925kB time=5.29 bitrate=1432.1kbits/s dup=0 drop=31    frame=  143 fps= 28 q=31.0 size=     956kB time=5.96 bitrate=1315.1kbits/s dup=0 drop=35    frame=  159 fps= 28 q=31.0 size=    1003kB time=6.62 bitrate=1240.7kbits/s dup=0 drop=39    frame=  175 fps= 28 q=31.0 size=    1033kB time=7.29 bitrate=1160.9kbits/s dup=0 drop=43    frame=  191 fps= 28 q=31.0 size=    1063kB time=7.96 bitrate=1094.5kbits/s dup=0 drop=47    frame=  192 fps= 28 q=31.0 Lsize=    1064kB time=8.00 bitrate=1089.8kbits/s dup=0 drop=48    video:1061kB audio:0kB global headers:0kB muxing overhead 0.302066%